<svg width="1280" height="720" xmlns="http://www.w3.org/2000/svg" xmlns:xlink="http://www.w3.org/1999/xlink" overflow="hidden"><g><rect x="0" y="0" width="1280" height="720" fill="#FFFFFF"/><rect x="0" y="0" width="1280" height="720" fill="#FFFFFF"/><path d="M712.829 645.836 712.725 645.844C712.717 645.863 712.709 645.882 712.701 645.9ZM1.03244 0 1.29732 0.000104987 1280 0.000104987 1280 536 1279.97 536 1280 551.914 1266.26 556.014C1252.86 559.818 1239.41 563.444 1225.91 566.893 1182.44 578.184 1138.62 588.015 1094.53 596.673 1059.61 603.522 1024.57 609.656 989.399 615.07 955.695 620.286 921.904 624.967 888.023 629.113 862.085 632.281 836.094 634.967 810.076 637.51L729.839 644.419 728.221 644.637 712.908 645.83 713.905 646.021C715.131 646.07 716.403 645.842 717.631 645.842 719.326 645.842 721.021 645.568 722.73 645.529 747.066 644.955 771.375 643.677 795.671 642.113 832.289 639.753 868.88 636.793 905.391 632.986 935.427 629.908 965.387 626.271 995.272 622.072 1035.69 616.361 1075.91 609.564 1115.94 601.68 1164.32 592.109 1212.28 580.818 1259.68 567.44L1280 561.454 1280 567.203 1241.92 578.262C1211 586.633 1179.86 594.078 1148.47 600.793 1115.26 607.912 1081.88 614.214 1048.35 619.699 1020.48 624.263 992.526 628.322 964.502 631.877 943.223 634.563 921.944 637.093 900.598 639.179L825.654 645.633C793.175 647.98 760.683 649.858 728.137 651.031L680.079 652.491C676.031 652.272 671.972 652.443 667.957 653L635.919 653 627.589 652.517 552.765 648.71C520.553 647.406 488.381 645.255 456.302 642.191L354.125 631.838C318.678 628.24 283.302 624.076 247.997 619.347 208.367 614.08 168.857 608.017 129.467 601.158 88.418 593.941 47.6386 585.698 7.1916 575.982L0 574.159 0 568.226 7.60535 570.198C26.0326 574.628 44.5317 578.751 63.0673 582.63 103.756 591.118 144.686 598.355 185.776 604.705 215.478 609.281 245.22 613.493 274.389 616.987 273.548 617.261 272.4 616.205 270.985 615.944 219.126 606.286 167.736 594.639 116.812 581.001 92.436 574.481 68.2113 567.499 44.1377 560.054L0 545.463 0.00629921 536 0 536 0 0.000104987 1.03244 0.000104987Z" fill="#ED7D31" fill-rule="evenodd"/><g><g><g><path d="M403.758 225.427 386.422 242.764C384.517 244.702 382.036 245.973 379.349 246.386 378.668 246.485 377.982 246.576 377.296 246.666 355.44 249.201 333.353 244.544 314.381 233.401L314.381 189.75 331.722 186.3C347.556 183.133 360.294 171.385 364.73 155.858L374.299 122.367C374.371 122.14 374.246 121.898 374.019 121.826 373.863 121.776 373.693 121.819 373.579 121.936L356.243 139.272C354.338 141.211 351.857 142.482 349.17 142.895 348.489 142.994 347.803 143.084 347.117 143.175 322.579 145.975 297.856 139.81 277.505 125.817L228.131 92.7188C228.117 84.5181 222.932 77.2179 215.194 74.5027L215.194 47.4375C215.194 42.674 211.332 38.8125 206.569 38.8125 201.805 38.8125 197.944 42.674 197.944 47.4375L197.944 74.5027C190.205 77.2179 185.021 84.5181 185.006 92.7188L135.628 125.809C115.277 139.804 90.5522 145.972 66.0114 143.175 65.3258 143.084 64.6444 142.994 63.9587 142.895 61.2724 142.481 58.7919 141.21 56.8862 139.272L39.5499 121.936C39.3839 121.765 39.1109 121.761 38.9401 121.927 38.823 122.041 38.7803 122.212 38.8298 122.367L48.3992 155.858C52.8346 171.385 65.5729 183.133 81.4071 186.3L98.7562 189.75 98.7562 233.401C79.7804 244.551 57.6866 249.211 35.8239 246.675 35.1382 246.584 34.4569 246.494 33.7712 246.395 31.0849 245.981 28.6042 244.71 26.6987 242.772L9.36244 225.436C9.19641 225.265 8.92338 225.261 8.75261 225.427 8.63548 225.541 8.59279 225.712 8.64225 225.867L18.2117 259.358C22.6471 274.885 35.3853 286.633 51.2196 289.8L68.5687 293.25 68.5687 314.812 77.1937 314.812 77.1937 366.562 94.4437 366.562 94.4437 314.812 128.944 314.812 128.944 375.188 146.194 375.188 146.194 314.812 154.819 314.812 154.819 366.562 172.069 366.562 172.069 314.812 241.069 314.812 241.069 366.562 258.319 366.562 258.319 314.812 266.944 314.812 266.944 375.188 284.194 375.188 284.194 314.812 318.694 314.812 318.694 366.562 335.944 366.562 335.944 314.812 344.569 314.812 344.569 293.25 361.909 289.8C377.743 286.633 390.482 274.885 394.917 259.358L404.487 225.867C404.575 225.646 404.468 225.395 404.247 225.307 404.075 225.238 403.878 225.286 403.758 225.427ZM180.694 228.562 163.444 228.562 163.444 194.062 180.694 194.062ZM215.194 228.562 197.944 228.562 197.944 194.062 215.194 194.062ZM249.694 228.562 232.444 228.562 232.444 194.062 249.694 194.062Z" transform="matrix(1 0 0 1.00242 147 81)"/></g></g></g><g><g><g><path d="M138 68.9827C138 88.027 122.562 103.465 103.517 103.465 84.473 103.465 69.0345 88.027 69.0345 68.9827 69.0345 49.9385 84.473 34.5 103.517 34.5 122.562 34.5 138 49.9385 138 68.9827Z" transform="matrix(1 0 0 1.00242 587 81)"/><path d="M345.095 83.5417C338.852 76.3476 327.959 75.5753 320.764 81.8167L218.937 170.05C214.702 165.233 210.743 160.524 206.922 155.884L164.035 218.566C164.035 218.635 163.996 218.696 163.987 218.76L151.369 281.869 168.153 285.725 179.926 229.727C180.789 230.663 181.694 231.603 182.578 232.543L168.326 364.674C167.165 374.13 173.891 382.736 183.347 383.896 192.803 385.055 201.409 378.33 202.569 368.874 202.589 368.708 202.607 368.541 202.623 368.374L219.122 215.409 219.506 215.194 343.361 107.873C350.558 101.632 351.334 90.7397 345.095 83.5417Z" transform="matrix(1 0 0 1.00242 587 81)"/><path d="M163.828 200.932C163.692 199.655 163.413 198.396 162.995 197.18L198.453 145.357C189.983 134.576 182.746 124.549 176.731 115.756 201.312 100.054 231.499 88.0009 260.803 76.3701 269.658 72.8537 273.986 62.8241 270.469 53.9688 266.953 45.1135 256.923 40.7857 248.068 44.3023 215.832 57.1061 182.488 70.3498 154.314 89.1049 128.318 106.411 113.182 120.301 102.064 137.047 91.8606 152.425 87.4618 193.256 86.3578 205.4 85.4957 214.888 92.488 223.278 101.976 224.14 102.496 224.187 103.017 224.211 103.539 224.211 104.115 224.212 104.691 224.184 105.264 224.125L148.389 219.812C157.864 218.86 164.775 210.409 163.828 200.932ZM123.26 187.654C124.554 179.206 126.037 171.543 127.503 165.734 132.023 172.039 136.991 178.719 142.438 185.735Z" transform="matrix(1 0 0 1.00242 587 81)"/></g></g></g><path d="M970.5 277.5C970.5 232.765 1005.2 196.5 1048 196.5 1090.8 196.5 1125.5 232.765 1125.5 277.5 1125.5 322.235 1090.8 358.5 1048 358.5 1005.2 358.5 970.5 322.235 970.5 277.5Z" stroke="#C00000" stroke-width="1.33333" stroke-miterlimit="8" fill="#C00000" fill-rule="evenodd"/></g></svg>